HIERARCHY
ROOT Hips
{
 OFFSET 0.000000 0.000000 0.000000
 CHANNELS 6 Xposition Yposition Zposition Yrotation Xrotation Zrotation
 JOINT Chest
 {
  OFFSET 0.000000 9.857222 0.000240
  CHANNELS 3 Yrotation Xrotation Zrotation
  JOINT Chest2
  {
   OFFSET 0.000000 10.876940 -0.000436
   CHANNELS 3 Yrotation Xrotation Zrotation
   JOINT Chest3
   {
    OFFSET 0.000000 9.827798 0.000000
    CHANNELS 3 Yrotation Xrotation Zrotation
    JOINT Chest4
    {
     OFFSET 0.000000 9.827798 0.000000
     CHANNELS 3 Yrotation Xrotation Zrotation
     JOINT Neck
     {
      OFFSET 0.000000 13.831992 0.000000
      CHANNELS 3 Yrotation Xrotation Zrotation
      JOINT Head
      {
       OFFSET 0.000000 9.147643 -0.001036
       CHANNELS 3 Yrotation Xrotation Zrotation
       End Site
       {
        OFFSET 0.000000 17.515799 -0.000541
       }
      }
     }
     JOINT RightCollar
     {
      OFFSET -3.001579 7.717577 0.000000
      CHANNELS 3 Yrotation Xrotation Zrotation
      JOINT RightShoulder
      {
       OFFSET -14.002642 0.000000 0.000000
       CHANNELS 3 Yrotation Xrotation Zrotation
       JOINT RightElbow
       {
        OFFSET -30.053852 0.000000 0.000000
        CHANNELS 3 Yrotation Xrotation Zrotation
        JOINT RightWrist
        {
         OFFSET -24.564923 0.000000 -0.000000
         CHANNELS 3 Yrotation Xrotation Zrotation
         End Site
         {
          OFFSET -18.334355 0.000000 0.000000
         }
        }
       }
      }
     }
     JOINT LeftCollar
     {
      OFFSET 3.001579 7.717577 0.000000
      CHANNELS 3 Yrotation Xrotation Zrotation
      JOINT LeftShoulder
      {
       OFFSET 14.002642 0.000000 0.000000
       CHANNELS 3 Yrotation Xrotation Zrotation
       JOINT LeftElbow
       {
        OFFSET 30.053852 0.000000 0.000000
        CHANNELS 3 Yrotation Xrotation Zrotation
        JOINT LeftWrist
        {
         OFFSET 24.564923 0.000000 -0.000000
         CHANNELS 3 Yrotation Xrotation Zrotation
         End Site
         {
          OFFSET 18.334355 0.000000 0.000000
         }
        }
       }
      }
     }
    }
   }
  }
 }
 JOINT RightHip
 {
  OFFSET -8.003235 -0.001175 -0.000120
  CHANNELS 3 Yrotation Xrotation Zrotation
  JOINT RightKnee
  {
   OFFSET 0.000000 -41.759727 0.000113
   CHANNELS 3 Yrotation Xrotation Zrotation
   JOINT RightAnkle
   {
    OFFSET 0.000000 -40.728748 0.000159
    CHANNELS 3 Yrotation Xrotation Zrotation
    JOINT RightToe
    {
     OFFSET 0.000000 -6.515296 14.732841
     CHANNELS 3 Yrotation Xrotation Zrotation
     End Site
     {
      OFFSET 0.000000 -1.502839 6.412115
     }
    }
   }
  }
 }
 JOINT LeftHip
 {
  OFFSET 8.003235 -0.001175 -0.000120
  CHANNELS 3 Yrotation Xrotation Zrotation
  JOINT LeftKnee
  {
   OFFSET 0.000000 -41.759727 0.000113
   CHANNELS 3 Yrotation Xrotation Zrotation
   JOINT LeftAnkle
   {
    OFFSET 0.000000 -40.728748 0.000159
    CHANNELS 3 Yrotation Xrotation Zrotation
    JOINT LeftToe
    {
     OFFSET 0.000000 -6.515296 14.732841
     CHANNELS 3 Yrotation Xrotation Zrotation
     End Site
     {
      OFFSET 0.000000 -1.502839 6.412115
     }
    }
   }
  }
 }
}
MOTION
Frames: 14
Frame Time: 0.016667
7.300713 90.521800 21.179455 -35.698543 -5.507967 2.078388 -2.107345 -4.845605 -3.196872 -0.414900 -1.568868 -1.347519 -0.414900 -1.568868 -1.347519 -0.314618 -1.175744 -1.011642 6.769716 30.620134 1.511315 11.738517 20.753026 1.535308 6.286605 18.299726 14.378627 13.254984 12.344099 71.601192 146.115213 -36.179950 -9.940754 11.226136 -5.735286 -12.075869 -26.628618 33.823857 -19.263389 -52.808863 4.367220 12.837346 -36.027782 0.683336 28.600513 9.543508 13.197787 22.541851 -7.867509 5.754366 -4.349190 7.815490 6.016305 -0.613874 0.515541 -6.844679 1.278116 -0.020203 0.107653 0.172391 -32.460394 14.974987 -5.550440 36.894240 0.147064 -9.177723 10.941276 -9.698255 0.685216 0.196463 0.130370 0.044031
7.324386 90.523487 21.146341 -34.622126 -5.618613 2.039525 -1.864321 -4.774589 -3.235452 -0.326929 -1.556653 -1.352181 -0.326929 -1.556653 -1.352181 -0.248628 -1.166774 -1.014907 6.295065 30.690999 1.604199 10.881715 20.859786 1.783263 5.840788 18.546282 14.157629 14.452027 9.598484 70.264909 144.034851 -33.366835 -9.556207 10.937961 -5.355683 -12.855891 -26.127076 33.353613 -18.975642 -53.389959 3.988182 11.218454 -41.209014 -0.535227 30.709471 9.512449 13.492464 22.611817 -8.638276 5.914084 -4.402816 7.803118 6.016004 -0.616083 0.525175 -6.916613 1.202298 -0.023070 0.089230 0.193025 -32.893151 14.911738 -5.483282 36.757484 0.192078 -9.016060 10.462200 -9.603025 0.637175 0.252392 0.177289 0.068243
7.353377 90.519923 21.112364 -33.547954 -5.702388 1.992393 -1.551380 -4.697482 -3.263521 -0.217476 -1.553695 -1.350204 -0.217476 -1.553695 -1.350204 -0.166531 -1.164798 -1.013144 5.794652 30.773253 1.698627 9.979564 20.990209 2.038678 5.511833 18.860784 14.042671 16.154058 6.837935 68.836274 141.927329 -29.842719 -9.590832 10.599891 -5.325176 -13.255142 -25.955366 32.747928 -18.892999 -53.286143 4.409146 9.570976 -47.147307 -2.117907 33.374984 9.651039 13.834615 22.789541 -9.354231 6.047367 -4.444340 7.753744 6.022823 -0.609424 0.467388 -7.000402 1.137780 -0.025998 0.081701 0.202764 -33.395986 14.819473 -5.405191 36.630800 0.244736 -8.868430 10.063885 -9.528476 0.597983 0.293930 0.234491 0.084375
7.385931 90.513452 21.080219 -32.496437 -5.823307 1.947374 -1.197879 -4.616598 -3.274438 -0.090866 -1.550631 -1.339793 -0.090866 -1.550631 -1.339793 -0.071546 -1.162781 -1.005014 5.295718 30.883196 1.768663 9.085063 21.177127 2.252005 5.307534 19.146792 13.968133 18.455723 4.381811 67.402967 140.035692 -26.236222 -9.963562 10.266789 -5.138006 -13.542308 -25.946189 32.196452 -18.900409 -52.816456 4.824137 7.929649 -53.638470 -3.266093 36.030724 9.802095 13.721251 22.913950 -9.939257 6.217758 -4.483695 7.649697 6.039400 -0.612979 0.391773 -7.093965 1.093822 -0.026493 0.081585 0.205499 -33.969308 14.748416 -5.373944 36.529427 0.293498 -8.718302 9.651691 -9.454809 0.574511 0.320941 0.289535 0.093679
7.411120 90.511934 21.055088 -31.498393 -6.055634 1.904863 -0.816590 -4.467417 -3.243389 0.049308 -1.515324 -1.320067 0.049308 -1.515324 -1.320067 0.033705 -1.136606 -0.989871 4.808027 30.987996 1.786134 8.219688 21.360698 2.369272 5.167158 19.335072 13.893071 20.958658 2.022512 65.786740 138.035712 -22.615433 -10.215649 9.937091 -4.732181 -14.119194 -26.068887 31.712294 -18.976749 -51.801468 5.499896 6.430650 -61.505579 -4.889999 39.084806 9.933869 13.686681 23.025243 -10.339385 6.508631 -4.511387 7.462904 6.066957 -0.636723 0.267544 -7.171717 1.069579 -0.029738 0.059110 0.199475 -34.638666 14.759049 -5.451464 36.520852 0.338772 -8.575815 9.427177 -9.357919 0.527774 0.362521 0.309748 0.112615
7.434767 90.516499 21.043868 -30.616314 -6.351659 1.872396 -0.399429 -4.271994 -3.195271 0.188253 -1.478490 -1.297085 0.188253 -1.478490 -1.297085 0.138044 -1.109273 -0.972304 4.366252 31.068344 1.783549 7.438855 21.502850 2.441315 5.189400 19.512361 13.908566 23.598029 -0.312368 63.840934 135.641726 -18.570405 -10.391347 9.550243 -4.032120 -15.043353 -26.079585 31.412816 -19.084498 -50.843384 6.108641 4.685988 -70.263067 -6.170460 42.495891 10.046567 14.230204 23.177650 -10.520457 6.858839 -4.545581 7.209070 6.113138 -0.655901 0.126920 -7.230754 1.056712 -0.029716 0.013819 0.190194 -35.287574 14.829814 -5.580436 36.534371 0.390204 -8.451578 9.211816 -9.210677 0.511665 0.344009 0.262477 0.103678
7.458692 90.520026 21.028096 -29.721030 -6.602020 1.840312 0.009216 -4.112234 -3.166844 0.329540 -1.448618 -1.287494 0.329540 -1.448618 -1.287494 0.244091 -1.087164 -0.964788 3.948352 31.089048 1.813834 6.693975 21.535032 2.564073 5.239507 19.706734 14.044518 26.465156 -2.439703 61.491855 132.898051 -14.004738 -10.872574 8.946180 -3.426466 -16.229784 -25.945060 31.270669 -19.143370 -50.259884 6.641563 2.420871 -78.233007 -5.909106 45.500141 10.130628 14.752974 23.318278 -10.650089 7.160855 -4.569887 6.868293 6.169113 -0.665139 0.016758 -7.293086 1.040050 -0.027811 -0.030798 0.179091 -35.956585 14.870020 -5.696199 36.511828 0.420904 -8.340037 8.969038 -9.091245 0.500611 0.365502 0.243516 0.109997
7.480129 90.520631 21.016213 -28.851715 -6.807000 1.803831 0.433946 -3.984724 -3.141242 0.467908 -1.446025 -1.288094 0.467908 -1.446025 -1.288094 0.347866 -1.085512 -0.964913 3.550568 31.080135 1.867303 5.980428 21.513514 2.723268 5.312494 20.113736 14.186902 29.220944 -4.478073 58.717308 130.414595 -10.311792 -11.611588 8.298880 -3.186244 -17.612595 -25.800748 31.157993 -19.175437 -49.670135 6.973272 -0.078646 -85.020198 -4.513487 47.208170 10.186411 14.555258 23.462750 -10.732597 7.420890 -4.587344 6.479554 6.225429 -0.656272 -0.083407 -7.359851 1.019667 -0.025842 -0.069941 0.167418 -36.590801 14.882416 -5.784552 36.438553 0.449991 -8.216280 8.769669 -8.992534 0.469905 0.404939 0.237486 0.120866
7.485062 90.518232 21.016005 -28.013761 -7.038300 1.743412 0.899106 -3.884590 -3.103288 0.604572 -1.479950 -1.292637 0.604572 -1.479950 -1.292637 0.450276 -1.111248 -0.967960 3.170837 31.108549 1.936557 5.297076 21.562896 2.909124 5.552540 20.744373 14.403458 31.621324 -6.391425 55.628182 128.246077 -8.510169 -12.333229 7.826179 -2.299380 -18.875219 -25.843523 31.143009 -19.296801 -48.775518 7.109926 -2.667096 -91.941183 -3.219224 47.864800 10.132695 14.220665 23.507754 -10.766447 7.725663 -4.579297 6.107584 6.274208 -0.647540 -0.183270 -7.423547 1.002883 -0.024162 -0.113685 0.153392 -37.106247 14.959415 -5.846392 36.246076 0.466282 -8.103371 8.593947 -8.895315 0.445790 0.441973 0.230086 0.124971
7.465167 90.514041 21.030849 -27.217850 -7.282348 1.659266 1.338997 -3.800470 -2.991098 0.729839 -1.521276 -1.269936 0.729839 -1.521276 -1.269936 0.544188 -1.142481 -0.950580 2.799590 31.149181 1.946173 4.638947 21.638279 2.988292 5.968087 21.349741 14.573048 34.006230 -8.076075 52.497737 125.684379 -6.317630 -12.783037 7.298131 -1.352463 -20.099735 -25.732806 31.360732 -19.387895 -47.707133 6.781178 -5.404206 -99.746094 -2.364088 47.662875 9.903588 14.119986 23.318183 -10.752689 8.066109 -4.529267 5.833802 6.317269 -0.655057 -0.342854 -7.482745 1.013178 -0.029692 -0.166209 0.124551 -37.502720 15.105684 -5.890023 35.989228 0.460572 -7.988415 8.438886 -8.811116 0.400838 0.502695 0.229886 0.134207
7.405182 90.507996 21.077891 -26.491620 -7.562293 1.571337 1.810228 -3.661647 -2.832499 0.856614 -1.551997 -1.231160 0.856614 -1.551997 -1.231160 0.639297 -1.165732 -0.921140 2.425252 31.165228 1.919477 3.980829 21.669978 3.002669 6.313686 21.914558 14.649680 36.539643 -9.622022 49.268195 122.170613 -2.586466 -13.313430 6.598819 -0.394845 -20.936973 -25.395903 31.507410 -19.322507 -46.165652 6.449475 -8.530436 -108.397477 -1.955803 46.898840 9.535486 14.270542 22.852235 -10.697132 8.467668 -4.467029 5.632431 6.363921 -0.667395 -0.506451 -7.562093 1.037196 -0.039866 -0.219677 0.084144 -37.502011 15.408273 -5.896836 35.609162 0.390576 -7.903993 8.138088 -8.712774 0.378278 0.543863 0.222877 0.126732
7.308680 90.497943 21.131330 -25.734604 -7.808760 1.472169 2.255268 -3.513429 -2.658233 0.993654 -1.547527 -1.188004 0.993654 -1.547527 -1.188004 0.742190 -1.162586 -0.888435 2.028887 31.118648 1.885738 3.283523 21.586641 3.006580 6.535154 22.297121 14.688149 39.050428 -10.827372 45.791593 118.092483 1.876001 -14.376785 5.702097 0.371058 -21.549783 -25.010341 31.467892 -19.108143 -44.159133 6.002973 -12.125183 -116.792945 -1.645462 45.222362 9.252622 14.566543 22.483554 -10.711043 8.855236 -4.383237 5.438888 6.403765 -0.677119 -0.620516 -7.640340 1.052893 -0.054863 -0.282034 0.038887 -36.978551 15.843643 -5.689596 35.058560 0.280498 -7.935164 7.368490 -8.591223 0.392603 0.647971 0.226125 0.136298
7.196832 90.484926 21.167688 -24.894865 -7.932287 1.384933 2.632704 -3.433814 -2.509683 1.129672 -1.538236 -1.146993 1.129672 -1.538236 -1.146993 0.844319 -1.155807 -0.857352 1.616432 31.029165 1.858343 2.555768 21.424814 3.024089 6.702848 22.562729 14.730469 41.446623 -12.060494 42.201911 113.795514 5.357426 -15.298797 4.742705 1.043942 -22.670236 -24.844746 31.401658 -19.084281 -41.899822 5.431144 -15.958104 -123.850271 -1.276128 42.692215 8.936152 14.676515 22.345158 -10.849975 9.116190 -4.302038 5.206616 6.440595 -0.672017 -0.674505 -7.726727 1.056016 -0.072765 -0.330516 -0.008079 -36.182511 16.186799 -5.275385 34.275943 0.196182 -7.999206 6.437124 -8.438370 0.429589 0.765918 0.228056 0.141303
7.124067 90.470308 21.184863 -23.955055 -7.939649 1.364885 2.927019 -3.414651 -2.447087 1.249352 -1.535095 -1.100030 1.249352 -1.535095 -1.100030 0.934198 -1.153580 -0.821839 1.187406 30.910925 1.831333 1.797975 21.211032 3.045641 6.715644 22.849421 14.620714 43.787983 -13.762399 38.501417 109.300822 7.330465 -15.369040 3.998929 1.965490 -24.178932 -24.539000 31.059267 -19.089326 -39.612359 4.477184 -19.972564 -129.686334 -1.622161 39.083686 8.642390 14.659162 22.175564 -11.118149 9.222345 -4.303925 4.926704 6.488688 -0.656584 -0.702428 -7.832717 1.080232 -0.083878 -0.343580 -0.053723 -35.985781 16.182133 -5.047229 33.854755 0.193147 -7.927108 5.898239 -8.307610 0.492423 0.758575 0.258925 0.087620
